solid OpenSCAD_Model
  facet normal -1 0 0
    outer loop
      vertex -0.5 -0.5 0
      vertex -0.5 50.5 1.5
      vertex -0.5 50.5 0
    endloop
  endfacet
  facet normal -1 -0 0
    outer loop
      vertex -0.5 50.5 1.5
      vertex -0.5 -0.5 0
      vertex -0.5 -0.5 1.5
    endloop
  endfacet
  facet normal 0 0 1
    outer loop
      vertex 50.5 50.5 1.5
      vertex 13.5 15.5 1.5
      vertex 50.5 -0.5 1.5
    endloop
  endfacet
  facet normal -0 0 1
    outer loop
      vertex -0.5 50.5 1.5
      vertex 13.5 15.5 1.5
      vertex 50.5 50.5 1.5
    endloop
  endfacet
  facet normal 0 0 1
    outer loop
      vertex 13.5 15.5 1.5
      vertex -0.5 50.5 1.5
      vertex 0.5 15.5 1.5
    endloop
  endfacet
  facet normal 0 0 1
    outer loop
      vertex -0.5 -0.5 1.5
      vertex 0.5 15.5 1.5
      vertex -0.5 50.5 1.5
    endloop
  endfacet
  facet normal 0 0 1
    outer loop
      vertex 0.5 15.5 1.5
      vertex -0.5 -0.5 1.5
      vertex 0.5 -0.5 1.5
    endloop
  endfacet
  facet normal 0 0 1
    outer loop
      vertex 50.5 -0.5 1.5
      vertex 13.5 15.5 1.5
      vertex 13.5 -0.5 1.5
    endloop
  endfacet
  facet normal 1 -0 0
    outer loop
      vertex 50.5 -0.5 1.5
      vertex 50.5 50.5 0
      vertex 50.5 50.5 1.5
    endloop
  endfacet
  facet normal 1 0 0
    outer loop
      vertex 50.5 50.5 0
      vertex 50.5 -0.5 1.5
      vertex 50.5 -0.5 0
    endloop
  endfacet
  facet normal 0 1 -0
    outer loop
      vertex 50.5 50.5 0
      vertex -0.5 50.5 1.5
      vertex 50.5 50.5 1.5
    endloop
  endfacet
  facet normal 0 1 0
    outer loop
      vertex -0.5 50.5 1.5
      vertex 50.5 50.5 0
      vertex -0.5 50.5 0
    endloop
  endfacet
  facet normal 0 0 1
    outer loop
      vertex 13.5 15.5 0
      vertex 0.5 15.5 0
      vertex 13.5 -0.5 0
    endloop
  endfacet
  facet normal 0 0 1
    outer loop
      vertex 52 52 0
      vertex 50.5 50.5 0
      vertex 52 -2 0
    endloop
  endfacet
  facet normal 0 0 1
    outer loop
      vertex 52 52 0
      vertex -0.5 50.5 0
      vertex 50.5 50.5 0
    endloop
  endfacet
  facet normal 0 0 1
    outer loop
      vertex -0.5 50.5 0
      vertex -2 52 0
      vertex -0.5 -0.5 0
    endloop
  endfacet
  facet normal -0 0 1
    outer loop
      vertex -2 52 0
      vertex -0.5 50.5 0
      vertex 52 52 0
    endloop
  endfacet
  facet normal -0 0 1
    outer loop
      vertex 50.5 -0.5 0
      vertex 52 -2 0
      vertex 50.5 50.5 0
    endloop
  endfacet
  facet normal -0 0 1
    outer loop
      vertex 13.5 -0.5 0
      vertex 52 -2 0
      vertex 50.5 -0.5 0
    endloop
  endfacet
  facet normal 0 0 1
    outer loop
      vertex 0.5 -0.5 0
      vertex 13.5 -0.5 0
      vertex 0.5 15.5 0
    endloop
  endfacet
  facet normal 0 0 1
    outer loop
      vertex -2 -2 0
      vertex 13.5 -0.5 0
      vertex 0.5 -0.5 0
    endloop
  endfacet
  facet normal 0 0 1
    outer loop
      vertex -2 -2 0
      vertex 0.5 -0.5 0
      vertex -0.5 -0.5 0
    endloop
  endfacet
  facet normal 0 0 1
    outer loop
      vertex 13.5 -0.5 0
      vertex -2 -2 0
      vertex 52 -2 0
    endloop
  endfacet
  facet normal 0 0 1
    outer loop
      vertex -2 -2 0
      vertex -0.5 -0.5 0
      vertex -2 52 0
    endloop
  endfacet
  facet normal 0 -1 0
    outer loop
      vertex -0.5 -0.5 0
      vertex 0.5 -0.5 1.5
      vertex -0.5 -0.5 1.5
    endloop
  endfacet
  facet normal 0 -1 -0
    outer loop
      vertex 0.5 -0.5 1.5
      vertex -0.5 -0.5 0
      vertex 0.5 -0.5 0
    endloop
  endfacet
  facet normal 0 -1 0
    outer loop
      vertex 13.5 -0.5 0
      vertex 50.5 -0.5 1.5
      vertex 13.5 -0.5 1.5
    endloop
  endfacet
  facet normal 0 -1 -0
    outer loop
      vertex 50.5 -0.5 1.5
      vertex 13.5 -0.5 0
      vertex 50.5 -0.5 0
    endloop
  endfacet
  facet normal 1 -0 0
    outer loop
      vertex 0.5 -0.5 1.5
      vertex 0.5 15.5 0
      vertex 0.5 15.5 1.5
    endloop
  endfacet
  facet normal 1 0 0
    outer loop
      vertex 0.5 15.5 0
      vertex 0.5 -0.5 1.5
      vertex 0.5 -0.5 0
    endloop
  endfacet
  facet normal -1 0 0
    outer loop
      vertex 13.5 -0.5 0
      vertex 13.5 15.5 1.5
      vertex 13.5 15.5 0
    endloop
  endfacet
  facet normal -1 -0 0
    outer loop
      vertex 13.5 15.5 1.5
      vertex 13.5 -0.5 0
      vertex 13.5 -0.5 1.5
    endloop
  endfacet
  facet normal 0 -1 0
    outer loop
      vertex 0.5 15.5 0
      vertex 13.5 15.5 1.5
      vertex 0.5 15.5 1.5
    endloop
  endfacet
  facet normal 0 -1 -0
    outer loop
      vertex 13.5 15.5 1.5
      vertex 0.5 15.5 0
      vertex 13.5 15.5 0
    endloop
  endfacet
  facet normal -1 0 0
    outer loop
      vertex -2 -2 -1.5
      vertex -2 52 0
      vertex -2 52 -1.5
    endloop
  endfacet
  facet normal -1 -0 0
    outer loop
      vertex -2 52 0
      vertex -2 -2 -1.5
      vertex -2 -2 0
    endloop
  endfacet
  facet normal 1 -0 0
    outer loop
      vertex 52 -2 0
      vertex 52 52 -1.5
      vertex 52 52 0
    endloop
  endfacet
  facet normal 1 0 0
    outer loop
      vertex 52 52 -1.5
      vertex 52 -2 0
      vertex 52 -2 -1.5
    endloop
  endfacet
  facet normal 0 0 -1
    outer loop
      vertex -2 -2 -1.5
      vertex 52 52 -1.5
      vertex 52 -2 -1.5
    endloop
  endfacet
  facet normal -0 0 -1
    outer loop
      vertex 52 52 -1.5
      vertex -2 -2 -1.5
      vertex -2 52 -1.5
    endloop
  endfacet
  facet normal 0 -1 0
    outer loop
      vertex -2 -2 -1.5
      vertex 52 -2 0
      vertex -2 -2 0
    endloop
  endfacet
  facet normal 0 -1 -0
    outer loop
      vertex 52 -2 0
      vertex -2 -2 -1.5
      vertex 52 -2 -1.5
    endloop
  endfacet
  facet normal 0 1 -0
    outer loop
      vertex 52 52 -1.5
      vertex -2 52 0
      vertex 52 52 0
    endloop
  endfacet
  facet normal 0 1 0
    outer loop
      vertex -2 52 0
      vertex 52 52 -1.5
      vertex -2 52 -1.5
    endloop
  endfacet
endsolid OpenSCAD_Model
